<svg width="167" height="59" viewBox="0 0 167 59" fill="none" xmlns="http://www.w3.org/2000/svg">
<g clip-path="url(#clip0)">
<path d="M45.3555 16.8792L45.4144 17.0836C45.968 17.0382 46.5305 16.9428 47.0886 16.7883C51.7344 15.4802 54.4384 10.6517 53.1318 6.00037L45.7456 8.08074C46.5668 11.0242 46.4262 14.0811 45.3555 16.8792Z" fill="black"/>
<path d="M0 28.7755C0.0635171 30.2426 0.263142 31.7007 0.594338 33.1452C0.685077 33.5313 0.775816 33.9219 0.884702 34.308C1.22497 35.5163 1.65144 36.6836 2.15958 37.8056C2.96262 39.5816 3.96982 41.2396 5.16303 42.7522C7.09577 45.205 9.50941 47.2763 12.3132 48.8525C17.939 52.0139 24.4586 52.7906 30.6651 51.0419L31.4183 50.8284C25.1981 49.4112 19.9171 44.7235 18.0706 38.1553L20.1621 37.5648C22.5213 45.9636 31.264 50.8738 39.6483 48.5118C40.4513 48.2847 41.2226 47.9985 41.9621 47.6624C42.8559 47.2536 43.6998 46.763 44.4846 46.2043C47.0117 44.4146 48.9354 41.9255 50.056 39.0956C50.1377 38.8912 50.2148 38.6822 50.2874 38.4733C50.5188 37.8147 50.7048 37.1379 50.8454 36.4474C51.3309 34.0809 51.2855 31.569 50.6004 29.0844C50.5914 29.0571 50.5868 29.0299 50.5777 29.0026C50.4734 28.6347 50.3554 28.2758 50.2284 27.9261C49.4934 25.8911 48.3637 24.0969 46.9527 22.6025C46.4764 22.0983 45.9682 21.6259 45.4283 21.1944C44.9746 20.831 44.5028 20.4858 44.0128 20.1769C43.913 20.1133 43.8086 20.0497 43.7043 19.9907C42.9602 21.0536 42.0846 21.9938 41.0956 22.8023C39.621 24.0106 37.897 24.9145 36.0096 25.446C35.2384 25.664 34.4671 25.8003 33.6958 25.8866C33.1967 25.9411 32.7022 25.9729 32.2077 25.9729C30.5608 25.9729 28.9502 25.6776 27.4394 25.128C27.2488 25.2597 27.0583 25.3915 26.8677 25.5186C26.1418 25.9956 25.3932 26.4407 24.6174 26.8541C23.8189 27.2811 22.9977 27.6717 22.1539 28.026C21.0786 28.4757 19.967 28.8709 18.8147 29.1934L12.1635 31.0648C7.92149 32.2549 3.44807 31.3782 0 28.7755ZM24.6673 36.293C24.3633 35.648 24.1047 34.9666 23.9051 34.2535L23.6102 33.2088L34.8754 30.0382L36.0096 29.7203C38.3961 29.048 40.8415 29.7112 42.561 31.2556C42.7606 31.4373 42.9512 31.6326 43.1326 31.837C43.8041 32.6001 44.3258 33.5131 44.6207 34.5578C45.1243 36.3566 44.902 38.2416 43.9901 39.8723C43.0782 41.503 41.5855 42.6749 39.7889 43.1837C38.6275 43.5107 37.4569 43.6652 36.3045 43.6652C31.391 43.6606 26.8087 40.808 24.6673 36.293Z" fill="black"/>
<path d="M45.3557 16.8792L45.4147 17.0836C45.3648 17.0882 45.3149 17.0927 45.2695 17.0927C45.2968 17.0246 45.3285 16.9519 45.3557 16.8792Z" fill="black"/>
<path d="M36.5998 31.8098C37.7068 31.4964 38.832 31.6054 39.812 32.0278C40.1931 32.1914 40.5469 32.4094 40.8736 32.6683C41.6494 33.277 42.2483 34.1264 42.5341 35.1439C42.8835 36.3839 42.7292 37.683 42.0986 38.805C41.4679 39.9269 40.4426 40.7354 39.204 41.0852C34.2361 42.4842 29.0821 40.1131 26.7955 35.6935C26.6276 35.371 26.4779 35.0394 26.3418 34.6987L35.4656 32.1278L36.5998 31.8098Z" fill="black"/>
<path d="M29.6991 57.3193C18.4611 57.3193 9.35547 57.6963 9.35547 58.1597C9.35547 58.623 18.4656 59 29.6991 59C40.9371 59 50.0427 58.623 50.0427 58.1597C50.0472 57.6918 40.9371 57.3193 29.6991 57.3193Z" fill="black"/>
<path d="M90.5564 21.258C87.376 21.258 85.5023 22.2982 84.8943 22.7025V27.9579H79.627V17.1926H84.8943V20.9037C85.5794 19.2321 87.4895 16.8656 90.5564 16.8656V21.258Z" fill="#000010"/>
<path d="M114.317 22.5753C114.317 26.1773 110.873 28.2622 106.132 28.2622C101.981 28.2622 99.0544 26.8269 98.0064 24.5648C97.9564 26.6724 97.7069 27.9579 97.7069 27.9579H92.748V12.8002H98.0154V20.5539C99.0725 18.2919 101.994 16.8656 106.132 16.8656C110.864 16.8656 114.317 18.7961 114.317 22.5753ZM108.854 22.5753C108.854 20.9945 107.144 20.2269 104.158 20.2269C100.815 20.2269 98.0154 20.7084 98.0154 22.5753C98.0154 24.4194 100.815 24.9236 104.158 24.9236C107.144 24.9282 108.854 24.1333 108.854 22.5753Z" fill="#000010"/>
<path d="M138.408 22.5753C138.408 26.1773 134.965 28.2622 130.224 28.2622C126.073 28.2622 123.146 26.8269 122.098 24.5648C122.048 26.6724 121.799 27.9579 121.799 27.9579H116.84V12.8002H122.107V20.5539C123.164 18.2919 126.086 16.8656 130.224 16.8656C134.956 16.8656 138.408 18.7961 138.408 22.5753ZM132.946 22.5753C132.946 20.9945 131.236 20.2269 128.25 20.2269C124.907 20.2269 122.107 20.7084 122.107 22.5753C122.107 24.4194 124.907 24.9236 128.25 24.9236C131.236 24.9282 132.946 24.1333 132.946 22.5753Z" fill="#000010"/>
<path d="M151.094 21.258C147.913 21.258 146.039 22.2982 145.431 22.7025V27.9579H140.164V17.1926H145.431V20.9037C146.117 19.2321 148.027 16.8656 151.094 16.8656V21.258Z" fill="#000010"/>
<path d="M100.979 39.1638V54.3169H96.0199C96.0199 54.3169 95.7749 53.036 95.7204 50.9238C94.6679 53.1904 91.7461 54.6212 87.5948 54.6212C82.8582 54.6212 79.4102 52.5363 79.4102 48.9343C79.4102 45.1505 82.8628 43.2246 87.5948 43.2246C91.7325 43.2246 94.6543 44.6509 95.7114 46.9129V39.1638H100.979ZM95.7114 48.9388C95.7114 47.0719 92.9121 46.5904 89.5683 46.5904C86.583 46.5904 84.8726 47.3581 84.8726 48.9388C84.8726 50.4968 86.583 51.2872 89.5683 51.2872C92.9121 51.2872 95.7114 50.783 95.7114 48.9388Z" fill="#000010"/>
<path d="M123.646 43.5562V54.3169H118.383V50.6013C117.575 52.2501 115.025 54.6485 110.924 54.6485C107.063 54.6485 103.729 53.2631 103.729 48.6526V43.5562H108.996V48.103C108.996 50.5195 110.18 51.1327 112.943 51.1327C115.797 51.1327 117.752 49.5611 118.383 48.9797V43.5562H123.646Z" fill="#000010"/>
<path d="M136.041 54.6485C129.241 54.6485 125.402 53.1314 125.402 48.9615C125.402 44.7917 129.241 43.2291 136.041 43.2291C142.842 43.2291 145.61 45.0915 145.651 48.2257H140.819C140.347 47.3308 138.673 46.6813 136.041 46.6813C132.884 46.6813 130.774 47.2718 130.774 48.9661C130.774 50.6603 132.838 51.2054 136.041 51.2054C138.673 51.2054 140.352 50.5422 140.855 49.6429H145.678C145.682 52.8089 142.842 54.6485 136.041 54.6485Z" fill="#000010"/>
<path d="M147.65 39.1638H152.918V54.3214H147.65V39.1638ZM167 54.3169L160.331 54.3623L153.009 48.1984L159.279 43.5516H166.256L159.533 48.2438L167 54.3169Z" fill="#000010"/>
<path d="M32.2169 0C25.661 0 20.3438 5.32358 20.3438 11.8918C20.3438 18.4599 25.661 23.7835 32.2214 23.7835C38.7819 23.7835 44.0991 18.4599 44.0991 11.8918C44.0991 5.32358 38.7773 0 32.2169 0ZM37.2711 14.7897C34.8892 14.7897 32.9564 12.8547 32.9564 10.47C32.9564 8.0853 34.8892 6.15028 37.2711 6.15028C39.6529 6.15028 41.5857 8.0853 41.5857 10.47C41.5857 12.8547 39.6529 14.7897 37.2711 14.7897Z" fill="black"/>
<path d="M39.0714 9.32533C38.8945 9.80681 38.4363 10.1475 37.8918 10.1475C37.1931 10.1475 36.6306 9.58424 36.6306 8.88472C36.6306 8.70757 36.6669 8.53951 36.7349 8.38507C35.8048 8.62127 35.1152 9.45706 35.1152 10.4609C35.1152 11.6464 36.0771 12.6094 37.2612 12.6094C38.4453 12.6094 39.4072 11.6464 39.4072 10.4609C39.4026 10.043 39.2756 9.65237 39.0714 9.32533Z" fill="black"/>
</g>
<defs>
<clipPath id="clip0">
<rect width="167" height="59" fill="white"/>
</clipPath>
</defs>
</svg>
