<svg width="349" height="53" viewBox="0 0 349 53" fill="none" xmlns="http://www.w3.org/2000/svg">
<path fill-rule="evenodd" clip-rule="evenodd" d="M348.343 40.0438C348.871 41.6143 348.026 43.3155 346.455 43.8435L320.863 52.4487C319.293 52.9768 317.592 52.1317 317.064 50.5613C316.536 48.9908 317.381 47.2896 318.951 46.7616L337.641 40.4772C310.454 27.297 260.145 5.99998 176.499 5.99998C89.1215 5.99999 31.7434 31.137 3.21167 43.7441L0.786681 38.2559C29.5883 25.5296 87.8769 -7.73318e-06 176.499 -1.54808e-05C261.493 -2.29112e-05 312.736 21.7299 340.36 35.1276L334.05 16.3641C333.522 14.7936 334.367 13.0925 335.938 12.5644C337.508 12.0363 339.21 12.8814 339.738 14.4518L348.343 40.0438Z" fill="black"/>
</svg>
