<svg width="349" height="54" viewBox="0 0 349 54" fill="none" xmlns="http://www.w3.org/2000/svg">
<path fill-rule="evenodd" clip-rule="evenodd" d="M346.582 10.2024C348.127 10.8005 348.895 12.5379 348.296 14.0831L338.55 39.2624C337.951 40.8075 336.214 41.5752 334.669 40.9771C333.124 40.379 332.356 38.6416 332.954 37.0964L340.095 18.6502C309.436 31.984 253.297 54.0001 170.999 54.0001C78.8567 54.0001 26.3816 28.4616 0.664062 15.6869L3.33329 10.3133C28.6157 22.8719 80.1406 48.0001 170.999 48.0001C252.055 48.0001 307.295 26.3688 337.64 13.1749L319.236 6.05095C317.691 5.45284 316.924 3.7154 317.522 2.17027C318.12 0.625136 319.857 -0.142571 321.402 0.455544L346.582 10.2024Z" fill="black"/>
</svg>
