<?xml version="1.0" encoding="utf-8"?>
<!-- Generator: Adobe Illustrator 24.0.1, SVG Export Plug-In . SVG Version: 6.00 Build 0)  -->
<svg version="1.1" id="Layer_1" xmlns="http://www.w3.org/2000/svg" xmlns:xlink="http://www.w3.org/1999/xlink" x="0px" y="0px"
	 viewBox="0 0 574 557" style="enable-background:new 0 0 574 557;" xml:space="preserve">
<style type="text/css">
	.st0{fill:#FFFFFF;}
	.st1{fill:#EEEEEE;}
	.st2{fill:#FED141;}
	.st3{fill-rule:evenodd;clip-rule:evenodd;}
</style>
<path d="M227.2,330.1h102.8c29.2,0,52.9,23.7,52.9,52.9v0c0,29.2-23.7,52.9-52.9,52.9H227.2c-29.2,0-52.9-23.7-52.9-52.9v0
	C174.4,353.8,198,330.1,227.2,330.1z"/>
<path class="st0" d="M272.6,383c0-25-20.4-45.4-45.4-45.4c-25,0-45.4,20.4-45.4,45.4c0,25,20.4,45.4,45.4,45.4
	C252.3,428.4,272.6,408,272.6,383z"/>
<g>
	<path class="st0" d="M466.2,330.1h107.8v105.8H466.2c-29.2,0-52.9-23.7-52.9-52.9v0C413.3,353.8,437,330.1,466.2,330.1z"/>
	<path class="st1" d="M511.6,383c0-25-20.4-45.4-45.4-45.4c-25,0-45.4,20.4-45.4,45.4c0,25,20.4,45.4,45.4,45.4
		C491.2,428.4,511.6,408,511.6,383z"/>
</g>
<circle class="st2" cx="92.1" cy="383" r="52.9"/>
<path d="M106.4,353c-0.4-0.4-0.8-0.7-1.3-0.9c-0.5-0.2-1-0.3-1.6-0.3c-0.5,0-1.1,0.1-1.6,0.3c-0.5,0.2-0.9,0.5-1.3,0.9L73,380.1
	c-0.4,0.4-0.7,0.8-0.9,1.3c-0.2,0.5-0.3,1-0.3,1.5c0,0.5,0.1,1,0.3,1.5c0.2,0.5,0.5,0.9,0.9,1.3l27.6,27.1c0.4,0.4,0.8,0.7,1.3,0.9
	c0.5,0.2,1,0.3,1.6,0.3c0.5,0,1.1-0.1,1.6-0.3c0.5-0.2,1-0.5,1.3-0.9c0.4-0.4,0.7-0.8,0.9-1.3c0.2-0.5,0.3-1,0.3-1.6
	c0-0.5-0.1-1.1-0.3-1.5c-0.2-0.5-0.5-0.9-0.9-1.3l-24.7-24.3l24.7-24.3c0.4-0.4,0.7-0.8,0.9-1.3c0.2-0.5,0.3-1,0.3-1.5
	c0-0.5-0.1-1-0.3-1.5C107,353.8,106.7,353.4,106.4,353L106.4,353z"/>
<g>
	<path class="st3" d="M161.6,557v-61.7c0-13.8,11.2-25,25-25H574v-5H186.6c-16.6,0-30,13.4-30,30V557H161.6z"/>
</g>
</svg>
