<svg width="573" height="557" viewBox="0 0 573 557" fill="none" xmlns="http://www.w3.org/2000/svg">
<rect x="130.273" y="462.878" width="60.4126" height="50.373" fill="white"/>
<rect x="212.551" y="326.169" width="60.7282" height="187.082" fill="white"/>
<rect x="291.887" y="419.221" width="60.7282" height="94.0308" fill="white"/>
<rect x="374.086" y="267.4" width="61.1882" height="245.851" fill="black"/>
<rect x="456.441" y="181.205" width="60.7282" height="332.046" fill="#FED141"/>
<mask id="mask0" mask-type="alpha" maskUnits="userSpaceOnUse" x="0" y="382" width="190" height="175">
<path d="M0 382H189.041V556.349H0V382Z" fill="#C4C4C4"/>
</mask>
<g mask="url(#mask0)">
<path fill-rule="evenodd" clip-rule="evenodd" d="M-11.7539 418.79L162.595 418.79L162.595 423.79L-11.7539 423.79L-11.7539 418.79Z" fill="black"/>
</g>
<path fill-rule="evenodd" clip-rule="evenodd" d="M240.973 455.845L312.475 367.691L316.358 370.841L244.856 458.994L240.973 455.845Z" fill="black"/>
<path fill-rule="evenodd" clip-rule="evenodd" d="M313.633 367.872L402.766 338.487L404.332 343.236L315.198 372.621L313.633 367.872Z" fill="black"/>
<path fill-rule="evenodd" clip-rule="evenodd" d="M397.766 338.22L478.084 248.107L481.816 251.434L401.498 341.547L397.766 338.22Z" fill="black"/>
<path fill-rule="evenodd" clip-rule="evenodd" d="M321.477 360.032L399.836 334.566L401.381 339.321L323.022 364.787L321.477 360.032Z" fill="#EEEEEE"/>
<path fill-rule="evenodd" clip-rule="evenodd" d="M402.656 340.183L448.692 288.27L452.433 291.587L406.397 343.5L402.656 340.183Z" fill="#EEEEEE"/>
<path fill-rule="evenodd" clip-rule="evenodd" d="M161.523 420.803L243.8 452.146L242.02 456.819L159.743 425.475L161.523 420.803Z" fill="black"/>
<path d="M175.329 422.649C175.329 429.952 169.409 435.872 162.106 435.872C154.803 435.872 148.883 429.952 148.883 422.649C148.883 415.346 154.803 409.426 162.106 409.426C169.409 409.426 175.329 415.346 175.329 422.649Z" fill="#EEEEEE"/>
<path fill-rule="evenodd" clip-rule="evenodd" d="M162.106 430.872C166.647 430.872 170.329 427.19 170.329 422.649C170.329 418.107 166.647 414.426 162.106 414.426C157.564 414.426 153.883 418.107 153.883 422.649C153.883 427.19 157.564 430.872 162.106 430.872ZM162.106 435.872C169.409 435.872 175.329 429.952 175.329 422.649C175.329 415.346 169.409 409.426 162.106 409.426C154.803 409.426 148.883 415.346 148.883 422.649C148.883 429.952 154.803 435.872 162.106 435.872Z" fill="black"/>
<circle cx="404.036" cy="339.393" r="10.7231" fill="black" stroke="#EEEEEE" stroke-width="5"/>
<path d="M496.602 249.28C496.602 256.583 490.682 262.503 483.379 262.503C476.076 262.503 470.156 256.583 470.156 249.28C470.156 241.977 476.076 236.057 483.379 236.057C490.682 236.057 496.602 241.977 496.602 249.28Z" fill="#FED141"/>
<path fill-rule="evenodd" clip-rule="evenodd" d="M483.379 257.503C487.921 257.503 491.602 253.821 491.602 249.28C491.602 244.738 487.921 241.057 483.379 241.057C478.838 241.057 475.156 244.738 475.156 249.28C475.156 253.821 478.838 257.503 483.379 257.503ZM483.379 262.503C490.682 262.503 496.602 256.583 496.602 249.28C496.602 241.977 490.682 236.057 483.379 236.057C476.076 236.057 470.156 241.977 470.156 249.28C470.156 256.583 476.076 262.503 483.379 262.503Z" fill="black"/>
<path d="M255.649 456.93C255.649 464.233 249.729 470.153 242.426 470.153C235.123 470.153 229.203 464.233 229.203 456.93C229.203 449.627 235.123 443.707 242.426 443.707C249.729 443.707 255.649 449.627 255.649 456.93Z" fill="white"/>
<path fill-rule="evenodd" clip-rule="evenodd" d="M242.426 465.153C246.968 465.153 250.649 461.472 250.649 456.93C250.649 452.389 246.968 448.707 242.426 448.707C237.885 448.707 234.203 452.389 234.203 456.93C234.203 461.472 237.885 465.153 242.426 465.153ZM242.426 470.153C249.729 470.153 255.649 464.233 255.649 456.93C255.649 449.627 249.729 443.707 242.426 443.707C235.123 443.707 229.203 449.627 229.203 456.93C229.203 464.233 235.123 470.153 242.426 470.153Z" fill="black"/>
<path d="M327.149 368.778C327.149 376.081 321.229 382.001 313.926 382.001C306.623 382.001 300.703 376.081 300.703 368.778C300.703 361.475 306.623 355.555 313.926 355.555C321.229 355.555 327.149 361.475 327.149 368.778Z" fill="#EEEEEE"/>
<path fill-rule="evenodd" clip-rule="evenodd" d="M313.926 377.001C318.468 377.001 322.149 373.319 322.149 368.778C322.149 364.236 318.468 360.555 313.926 360.555C309.385 360.555 305.703 364.236 305.703 368.778C305.703 373.319 309.385 377.001 313.926 377.001ZM313.926 382.001C321.229 382.001 327.149 376.081 327.149 368.778C327.149 361.475 321.229 355.555 313.926 355.555C306.623 355.555 300.703 361.475 300.703 368.778C300.703 376.081 306.623 382.001 313.926 382.001Z" fill="black"/>
</svg>
