<?xml version="1.0" encoding="utf-8"?>
<!-- Generator: Adobe Illustrator 24.0.1, SVG Export Plug-In . SVG Version: 6.00 Build 0)  -->
<svg version="1.1" id="Layer_1" xmlns="http://www.w3.org/2000/svg" xmlns:xlink="http://www.w3.org/1999/xlink" x="0px" y="0px"
	 viewBox="0 0 574 557" style="enable-background:new 0 0 574 557;" xml:space="preserve">
<style type="text/css">
	.st0{fill:#FFFFFF;}
	.st1{fill:#FED141;}
	.st2{fill-rule:evenodd;clip-rule:evenodd;}
</style>
<rect x="243.9" y="353.6" class="st0" width="330.1" height="159.7"/>
<path d="M243.9,318.7c0-11,9-20,20-20H574v55H243.9V318.7z"/>
<path class="st0" d="M271.6,312.5L271.6,312.5c8.2,0,14.9,6.7,14.9,14.9v0c0,8.2-6.7,14.9-14.9,14.9h0c-8.2,0-14.9-6.7-14.9-14.9v0
	C256.7,319.2,263.3,312.5,271.6,312.5z"/>
<path class="st1" d="M312.9,312.5L312.9,312.5c8.2,0,14.9,6.7,14.9,14.9v0c0,8.2-6.7,14.9-14.9,14.9h0c-8.2,0-14.9-6.7-14.9-14.9v0
	C297.9,319.2,304.6,312.5,312.9,312.5z"/>
<path class="st0" d="M354.1,312.5L354.1,312.5c8.2,0,14.9,6.7,14.9,14.9v0c0,8.2-6.7,14.9-14.9,14.9h0c-8.2,0-14.9-6.7-14.9-14.9v0
	C339.2,319.2,345.9,312.5,354.1,312.5z"/>
<path class="st2" d="M45.6,273.2l15.9,15.9c1,1,1,2.6,0,3.5l-15.9,15.9c-1,1-2.6,1-3.5,0c-1-1-1-2.6,0-3.5l11.6-11.6H0v-5h53.7
	l-11.6-11.6c-1-1-1-2.6,0-3.5C43,272.3,44.6,272.3,45.6,273.2z"/>
<path class="st1" d="M461.8,447.6h92.1c11.1,0,20.1,9,20.1,20.1v0c0,11.1-9,20.1-20.1,20.1h-92.1c-11.1,0-20.1-9-20.1-20.1v0
	C441.8,456.6,450.8,447.6,461.8,447.6z"/>
<path class="st2" d="M0,417.7h312c12.4,0,22.5,10.1,22.5,22.5v116.6h-5V440.2c0-9.7-7.8-17.5-17.5-17.5H0V417.7z"/>
</svg>
