<svg width="573" height="557" viewBox="0 0 573 557" fill="none" xmlns="http://www.w3.org/2000/svg">
<path d="M483.171 382.855H461.955V350.116C462.102 350.116 462.249 350.141 462.409 350.141C468.597 350.141 473.619 345.122 473.619 338.937C473.619 332.753 468.597 327.734 462.409 327.734C462.262 327.734 462.114 327.746 461.955 327.758V316.592H461.648V311.708C461.648 303.781 455.226 297.363 447.295 297.363H397.484V341.085C397.484 357.282 409.504 370.67 425.121 372.842V382.855H412.266C401.953 382.855 392.118 387.224 385.206 394.881L307.855 480.618L317.788 479.796C325.523 472.642 335.751 468.543 346.531 468.543H508.709L518.58 427.828C524.13 404.918 506.769 382.855 483.171 382.855Z" fill="white"/>
<path d="M433.291 509.956H348.365C324.743 509.956 305.602 490.813 305.602 467.216H433.291V509.956Z" fill="black"/>
<path d="M445.07 524.707C442.762 524.707 440.442 523.946 438.514 522.388C434.033 518.768 433.333 512.203 436.955 507.724L477.386 457.744C481.008 453.265 487.576 452.566 492.058 456.186C496.539 459.806 497.239 466.371 493.617 470.85L453.186 520.829C451.123 523.382 448.115 524.707 445.07 524.707Z" fill="black"/>
<path d="M422.654 524.168C417.35 524.168 411.997 522.572 407.356 519.272L319.594 456.825L279.531 463.279C265.142 465.598 251.587 455.818 249.266 441.437C246.946 427.055 256.731 413.508 271.121 411.189L321.865 403.004C328.716 401.9 335.727 403.532 341.375 407.557L417.731 461.88L464.325 404.28C473.497 392.954 490.109 391.187 501.453 400.354C512.786 409.52 514.554 426.123 505.382 437.461L443.17 514.363C438.001 520.805 430.365 524.168 422.654 524.168Z" fill="white"/>
<path d="M434.329 324.568C436.702 324.568 438.626 322.645 438.626 320.273C438.626 317.901 436.702 315.979 434.329 315.979C431.955 315.979 430.031 317.901 430.031 320.273C430.031 322.645 431.955 324.568 434.329 324.568Z" fill="black"/>
<path d="M402.614 324.568C404.987 324.568 406.911 322.645 406.911 320.273C406.911 317.901 404.987 315.979 402.614 315.979C400.24 315.979 398.316 317.901 398.316 320.273C398.316 322.645 400.24 324.568 402.614 324.568Z" fill="black"/>
<path d="M418.783 340.238V323.783H418.624C418.661 323.378 418.685 322.973 418.685 322.556C418.685 314.126 411.822 307.278 403.399 307.278C394.977 307.278 388.113 314.138 388.113 322.556C388.113 330.974 394.977 337.833 403.399 337.833C407.684 337.833 411.564 336.054 414.351 333.195V344.668H425.131V340.238H418.783ZM403.399 333.403C397.42 333.403 392.546 328.532 392.546 322.556C392.546 316.58 397.408 311.708 403.399 311.708C409.391 311.708 414.253 316.567 414.253 322.556C414.253 328.544 409.391 333.403 403.399 333.403Z" fill="black"/>
<path d="M436.294 337.833C427.859 337.833 421.008 330.974 421.008 322.556C421.008 314.138 427.871 307.278 436.294 307.278C444.716 307.278 451.58 314.138 451.58 322.556C451.58 330.974 444.729 337.833 436.294 337.833ZM436.294 311.708C430.314 311.708 425.44 316.567 425.44 322.556C425.44 328.544 430.302 333.403 436.294 333.403C442.285 333.403 447.147 328.532 447.147 322.556C447.147 316.58 442.285 311.708 436.294 311.708Z" fill="black"/>
<path d="M428.336 364.142V359.454C430.706 359.454 432.977 358.558 434.708 356.938L437.913 360.362C435.31 362.804 431.909 364.142 428.336 364.142Z" fill="black"/>
<path d="M446.581 416.183V419.864C447.502 419.864 448.411 419.901 449.319 419.95L417.409 459.389L381.951 434.16V422.515H378.267V431.534L363.865 421.287L386.592 396.095C393.136 388.843 402.504 384.671 412.277 384.671H415.039C416.451 398.304 428.005 408.955 442.014 408.955C456.968 408.955 469.136 396.795 469.136 381.849H465.452C465.452 394.77 454.942 405.274 442.014 405.274C430.043 405.274 420.159 396.255 418.76 384.671H425.132V384.794C441.032 384.794 454.218 373.234 456.76 358.067C451.087 367.111 441.032 373.136 429.552 373.136C428.042 373.136 426.568 373.026 425.12 372.829V381.002H412.252C401.436 381.002 391.073 385.603 383.829 393.641L360.82 419.152L342.44 406.084C336.351 401.752 328.947 400.022 321.568 401.212L289.118 406.44L281.677 389.101C277.442 379.235 267.742 372.829 256.999 372.829H153.914C145.7 372.829 140.175 381.223 143.404 388.757L177.095 467.316H315.22L290.616 409.925L322.157 404.844C328.567 403.814 335.012 405.311 340.304 409.078L418.072 464.408L453.653 420.416C475.459 423.84 492.193 442.737 492.193 465.463H495.877C495.889 438.295 473.764 416.183 446.581 416.183Z" fill="black"/>
<path d="M397.48 297.363H447.291C455.223 297.363 461.644 303.781 461.644 311.708V316.592H461.951V327.758C462.098 327.758 462.246 327.734 462.405 327.734C464.738 327.734 466.911 328.445 468.704 329.672V284.797C468.704 274.453 460.318 266.072 449.955 266.072H416.719C406.087 266.072 397.468 257.458 397.468 246.831C383.508 246.831 372.188 258.145 372.188 272.097C372.188 286.049 383.52 297.363 397.48 297.363Z" fill="black"/>
<path d="M237.713 439.712C243.817 432.867 241.773 421.09 233.147 413.407C224.522 405.724 212.581 405.044 206.478 411.889C200.374 418.734 202.418 430.511 211.044 438.194C219.669 445.877 231.61 446.557 237.713 439.712Z" fill="#FED141"/>
<path fill-rule="evenodd" clip-rule="evenodd" d="M0 464.715H307.559V469.715H0V464.715Z" fill="black"/>
</svg>
